[Header]
FileType HTR
DataType HTRS
FileVersion 1
NumSegments 64
NumFrames 3
DataFrameRate 30
EulerRotationOrder ZYX
CalibrationUnits mm
RotationUnits Degrees
GlobalAxisofGravity Y
BoneLengthAxis Y
ScaleFactor 1.0
[SegmentNames&Hierarchy]
Hips	GLOBAL
Spine	Hips
Spine1	Spine
Spine2	Spine1
Neck	Spine2
Head	Neck
LeftEye	Head
RightEye	Head
LeftShoulder	Spine2
LeftArm	LeftShoulder
LeftForeArm	LeftArm
LeftHand	LeftForeArm
LeftHandThumb1	LeftHand
LeftHandThumb2	LeftHandThumb1
LeftHandThumb3	LeftHandThumb2
LeftHandThumb4	LeftHandThumb3
LeftHandIndex1	LeftHand
LeftHandIndex2	LeftHandIndex1
LeftHandIndex3	LeftHandIndex2
LeftHandIndex4	LeftHandIndex3
LeftHandMiddle1	LeftHand
LeftHandMiddle2	LeftHandMiddle1
LeftHandMiddle3	LeftHandMiddle2
LeftHandMiddle4	LeftHandMiddle3
LeftHandRing1	LeftHand
LeftHandRing2	LeftHandRing1
LeftHandRing3	LeftHandRing2
LeftHandRing4	LeftHandRing3
LeftHandPinky1	LeftHand
LeftHandPinky2	LeftHandPinky1
LeftHandPinky3	LeftHandPinky2
LeftHandPinky4	LeftHandPinky3
RightShoulder	Spine2
RightArm	RightShoulder
RightForeArm	RightArm
RightHand	RightForeArm
RightHandPinky1	RightHand
RightHandPinky2	RightHandPinky1
RightHandPinky3	RightHandPinky2
RightHandPinky4	RightHandPinky3
RightHandRing1	RightHand
RightHandRing2	RightHandRing1
RightHandRing3	RightHandRing2
RightHandRing4	RightHandRing3
RightHandMiddle1	RightHand
RightHandMiddle2	RightHandMiddle1
RightHandMiddle3	RightHandMiddle2
RightHandMiddle4	RightHandMiddle3
RightHandIndex1	RightHand
RightHandIndex2	RightHandIndex1
RightHandIndex3	RightHandIndex2
RightHandIndex4	RightHandIndex3
RightHandThumb1	RightHand
RightHandThumb2	RightHandThumb1
RightHandThumb3	RightHandThumb2
RightHandThumb4	RightHandThumb3
LeftUpLeg	Hips
LeftLeg	LeftUpLeg
LeftFoot	LeftLeg
LeftToeBase	LeftFoot
RightUpLeg	Hips
RightLeg	RightUpLeg
RightFoot	RightLeg
RightToeBase	RightFoot
[BasePosition]
Hips	0	0	0	0	0	0	1
Spine	0	0	0	0	0	0	1
Spine1	0	0	0	0	0	0	1
Spine2	0	0	0	0	0	0	1
Neck	0	0	0	0	0	0	1
Head	0	0	0	0	0	0	1
LeftEye	0	0	0	0	0	0	1
RightEye	0	0	0	0	0	0	1
LeftShoulder	0	0	0	0	0	0	1
LeftArm	0	0	0	0	0	0	1
LeftForeArm	0	0	0	0	0	0	1
LeftHand	0	0	0	0	0	0	1
LeftHandThumb1	0	0	0	0	0	0	1
LeftHandThumb2	0	0	0	0	0	0	1
LeftHandThumb3	0	0	0	0	0	0	1
LeftHandThumb4	0	0	0	0	0	0	1
LeftHandIndex1	0	0	0	0	0	0	1
LeftHandIndex2	0	0	0	0	0	0	1
LeftHandIndex3	0	0	0	0	0	0	1
LeftHandIndex4	0	0	0	0	0	0	1
LeftHandMiddle1	0	0	0	0	0	0	1
LeftHandMiddle2	0	0	0	0	0	0	1
LeftHandMiddle3	0	0	0	0	0	0	1
LeftHandMiddle4	0	0	0	0	0	0	1
LeftHandRing1	0	0	0	0	0	0	1
LeftHandRing2	0	0	0	0	0	0	1
LeftHandRing3	0	0	0	0	0	0	1
LeftHandRing4	0	0	0	0	0	0	1
LeftHandPinky1	0	0	0	0	0	0	1
LeftHandPinky2	0	0	0	0	0	0	1
LeftHandPinky3	0	0	0	0	0	0	1
LeftHandPinky4	0	0	0	0	0	0	1
RightShoulder	0	0	0	0	0	0	1
RightArm	0	0	0	0	0	0	1
RightForeArm	0	0	0	0	0	0	1
RightHand	0	0	0	0	0	0	1
RightHandPinky1	0	0	0	0	0	0	1
RightHandPinky2	0	0	0	0	0	0	1
RightHandPinky3	0	0	0	0	0	0	1
RightHandPinky4	0	0	0	0	0	0	1
RightHandRing1	0	0	0	0	0	0	1
RightHandRing2	0	0	0	0	0	0	1
RightHandRing3	0	0	0	0	0	0	1
RightHandRing4	0	0	0	0	0	0	1
RightHandMiddle1	0	0	0	0	0	0	1
RightHandMiddle2	0	0	0	0	0	0	1
RightHandMiddle3	0	0	0	0	0	0	1
RightHandMiddle4	0	0	0	0	0	0	1
RightHandIndex1	0	0	0	0	0	0	1
RightHandIndex2	0	0	0	0	0	0	1
RightHandIndex3	0	0	0	0	0	0	1
RightHandIndex4	0	0	0	0	0	0	1
RightHandThumb1	0	0	0	0	0	0	1
RightHandThumb2	0	0	0	0	0	0	1
RightHandThumb3	0	0	0	0	0	0	1
RightHandThumb4	0	0	0	0	0	0	1
LeftUpLeg	0	0	0	0	0	0	1
LeftLeg	0	0	0	0	0	0	1
LeftFoot	0	0	0	0	0	0	1
LeftToeBase	0	0	0	0	0	0	1
RightUpLeg	0	0	0	0	0	0	1
RightLeg	0	0	0	0	0	0	1
RightFoot	0	0	0	0	0	0	1
RightToeBase	0	0	0	0	0	0	1
[Hips]
15	52.64488602	986.8780518	805.8448486	-0.5476756692	1.325192451	0.09829198569	1.0
16	49.52172089	998.9962158	857.5963135	-0.7452324629	2.129559517	0.5686009526	1.0
17	46.3371315	1008.943848	911.9833984	-0.7362216711	2.960837126	1.058953285	1.0
[Spine]
15	0	101.8159943	1.315000057	5.037849903	-1.818421841	-0.7448146343	1.0
16	0	101.8159943	1.315000057	5.064545631	-2.910357714	-1.336320281	1.0
17	0	101.8159943	1.315000057	4.960737228	-4.04220438	-1.962155342	1.0
[Spine1]
15	0	100.8349991	-10.00800037	1.906178713	-0.9477452636	-0.2853301764	1.0
16	0	100.8349991	-10.00800037	1.961028099	-2.013360739	-0.003527245019	1.0
17	0	100.8349991	-10.00800037	2.014366865	-3.003932476	0.3886084259	1.0
[Spine2]
15	0	91	-13.73399925	1.899020195	-0.9045220017	-0.2424271256	1.0
16	0	91	-13.73399925	1.959740639	-1.972552061	0.06739389896	1.0
17	0	91	-13.73399925	2.000934601	-2.964366436	0.4904901683	1.0
[Neck]
15	0	166.7169952	-25.16200066	-0.06876413524	1.649296403	-2.296857119	1.0
16	0	166.7169952	-25.16200066	0.237513423	2.139919281	-1.771303415	1.0
17	0	166.7169952	-25.16200066	0.5600891709	2.637192011	-1.339413643	1.0
[Head]
15	0	96.17900085	16.84999847	-3.849068165	3.731697559	-1.029805064	1.0
16	0	96.17900085	16.84999847	-2.878902674	5.241651535	-1.61825633	1.0
17	0	96.17900085	16.84999847	-2.000053167	6.633805752	-1.945564151	1.0
[LeftEye]
15	30.6760006	64.09500122	92.83599854	0	0	0	1.0
16	30.6760006	64.09500122	92.83599854	0	0	0	1.0
17	30.6760006	64.09500122	92.83599854	0	0	0	1.0
[RightEye]
15	-30.6760006	64.09500122	92.83499908	0	0	0	1.0
16	-30.6760006	64.09500122	92.83499908	0	0	0	1.0
17	-30.6760006	64.09500122	92.83499908	0	0	0	1.0
[LeftShoulder]
15	45.70400238	109.4599991	-26.28000069	2.567722082	-7.653098583	-16.29498863	1.0
16	45.70400238	109.4599991	-26.28000069	2.63400197	-8.146518707	-15.84844398	1.0
17	45.70400238	109.4599991	-26.28000069	2.665886402	-8.474450111	-15.46230507	1.0
[LeftArm]
15	105.923996	-5.24600029	-22.32099915	16.17571831	-5.9263134	-56.3939476	1.0
16	105.923996	-5.24600029	-22.32099915	16.85082436	-9.120010376	-55.94369888	1.0
17	105.923996	-5.24600029	-22.32099915	18.27692413	-12.21234417	-55.17264938	1.0
[LeftForeArm]
15	278.414978	-0.0009999999311	0	6.985148957e-06	-17.70018196	-0.0002020074025	1.0
16	278.414978	-0.0009999999311	0	6.624990874e-06	-21.85587311	-0.000212419458	1.0
17	278.414978	-0.0009999999311	0	4.454602731e-06	-26.76561546	-0.0002036469232	1.0
[LeftHand]
15	283.2879944	0	0	3.497282982	5.745952606	-11.57791138	1.0
16	283.2879944	0	0	4.494905472	5.801667213	-10.46461105	1.0
17	283.2879944	0	0	4.760616302	5.476524353	-11.09992695	1.0
[LeftHandThumb1]
15	24.6609993	-15.75	26.8239994	5.839803696	2.504242897	11.148386	1.0
16	24.6609993	-15.75	26.8239994	5.839803696	2.504242897	11.148386	1.0
17	24.6609993	-15.75	26.8239994	5.839803696	2.504242897	11.148386	1.0
[LeftHandThumb2]
15	32.29800034	-18.64699936	18.64699936	8.529614449	14.04101276	7.524413586	1.0
16	32.29800034	-18.64699936	18.64699936	6.612397194	12.10290051	6.518337727	1.0
17	32.29800034	-18.64699936	18.64699936	5.208006859	11.18255806	6.390170097	1.0
[LeftHandThumb3]
15	26.52600098	-15.31499958	15.31499958	-1.170975208	-8.347311974	21.86368752	1.0
16	26.52600098	-15.31499958	15.31499958	-0.7254298925	-7.357037544	21.416008	1.0
17	26.52600098	-15.31499958	15.31499958	-0.4436061978	-6.713008404	21.2278862	1.0
[LeftHandThumb4]
15	19.54599953	-11.28499985	11.28499985	0	0	0	1.0
16	19.54599953	-11.28499985	11.28499985	0	0	0	1.0
17	19.54599953	-11.28499985	11.28499985	0	0	0	1.0
[LeftHandIndex1]
15	91.09299469	-5.170999527	22.60099792	-0.7205836773	-1.170300841	-21.39653206	1.0
16	91.09299469	-5.170999527	22.60099792	-0.8244495988	-1.740450978	-21.69072342	1.0
17	91.09299469	-5.170999527	22.60099792	-0.8692567348	-2.397098541	-21.17895508	1.0
[LeftHandIndex2]
15	36.76399994	0	0	-0.1985451132	1.510294914	-14.97729778	1.0
16	36.76399994	0	0	-0.1997763216	1.514906883	-15.02396488	1.0
17	36.76399994	0	0	-0.2001429051	1.516296744	-15.03817749	1.0
[LeftHandIndex3]
15	28.83100128	0	0	-0.1985367984	1.510307312	-14.97726822	1.0
16	28.83100128	0	0	-0.1997664571	1.51489222	-15.02398968	1.0
17	28.83100128	0	0	-0.2001525164	1.516296744	-15.03817272	1.0
[LeftHandIndex4]
15	23.92700005	0	0	0	0	0	1.0
16	23.92700005	0	0	0	0	0	1.0
17	23.92700005	0	0	0	0	0	1.0
[LeftHandMiddle1]
15	95.33399963	0	0	-1.874169588	4.662491322	-29.64939499	1.0
16	95.33399963	0	0	-1.880764008	4.574334621	-29.72615051	1.0
17	95.33399963	0	0	-1.853969455	4.391713619	-29.41779327	1.0
[LeftHandMiddle2]
15	36.98199844	0	0	-0.1244760975	1.199752331	-11.84597397	1.0
16	36.98199844	0	0	-0.1246462241	1.200602293	-11.85430336	1.0
17	36.98199844	0	0	-0.125261113	1.203513145	-11.88344002	1.0
[LeftHandMiddle3]
15	29.50900078	0	0	-0.1696016788	1.397672057	-13.83662319	1.0
16	29.50900078	0	0	-0.1698061228	1.398498654	-13.844944	1.0
17	29.50900078	0	0	-0.1705121547	1.401372552	-13.87405491	1.0
[LeftHandMiddle4]
15	28.3390007	0	0	0	0	0	1.0
16	28.3390007	0	0	0	0	0	1.0
17	28.3390007	0	0	0	0	0	1.0
[LeftHandRing1]
15	91.04499817	-0.4390000105	-18.65100098	-2.012066126	7.20624733	-31.2538662	1.0
16	91.04499817	-0.4390000105	-18.65100098	-2.082046747	7.07913065	-32.03644562	1.0
17	91.04499817	-0.4390000105	-18.65100098	-2.034685612	6.894598961	-31.50132751	1.0
[LeftHandRing2]
15	31.54000092	0	0	-0.3251755238	1.921985388	-19.20373154	1.0
16	31.54000092	0	0	-0.3282554746	1.930842042	-19.29563522	1.0
17	31.54000092	0	0	-0.3300005496	1.935794711	-19.34730911	1.0
[LeftHandRing3]
15	29.37700081	0	0	-0.3951515257	2.112085104	-21.19173431	1.0
16	29.37700081	0	0	-0.3985641301	2.120863199	-21.2843399	1.0
17	29.37700081	0	0	-0.4005028903	2.125820637	-21.33654022	1.0
[LeftHandRing4]
15	26.47500038	0	0	0	0	0	1.0
16	26.47500038	0	0	0	0	0	1.0
17	26.47500038	0	0	0	0	0	1.0
[LeftHandPinky1]
15	80.77799988	-4.887000084	-38.06099701	-2.452992678	5.686295509	-35.78475189	1.0
16	80.77799988	-4.887000084	-38.06099701	-2.466377735	6.00065279	-35.59988403	1.0
17	80.77799988	-4.887000084	-38.06099701	-2.437556267	6.082916737	-35.19006729	1.0
[LeftHandPinky2]
15	36	0	0	-0.2693831325	1.753718376	-17.46429062	1.0
16	36	0	0	-0.2731350362	1.765588522	-17.58640289	1.0
17	36	0	0	-0.2751519382	1.771938086	-17.6517868	1.0
[LeftHandPinky3]
15	21.14200211	0	0	-0.2693834901	1.753721714	-17.46429443	1.0
16	21.14200211	0	0	-0.2731302083	1.765594006	-17.58639908	1.0
17	21.14200211	0	0	-0.2751536667	1.771934628	-17.65177727	1.0
[LeftHandPinky4]
15	19.75699997	0	0	0	0	0	1.0
16	19.75699997	0	0	0	0	0	1.0
17	19.75699997	0	0	0	0	0	1.0
[RightShoulder]
15	-45.70000076	109.4620056	-26.28000069	1.99469769	5.990822792	14.09639835	1.0
16	-45.70000076	109.4620056	-26.28000069	1.946916342	5.609722614	14.48316479	1.0
17	-45.70000076	109.4620056	-26.28000069	1.901142597	5.283951759	14.78142548	1.0
[RightArm]
15	-105.9280014	-5.248000145	-22.32099915	24.11824036	9.378001213	55.73918915	1.0
16	-105.9280014	-5.248000145	-22.32099915	22.12322426	6.377017021	56.75962067	1.0
17	-105.9280014	-5.248000145	-22.32099915	20.83515358	3.268136501	57.29637527	1.0
[RightForeArm]
15	-278.414978	0	0	2.349621155e-07	12.31679344	-6.248911632e-06	1.0
16	-278.414978	0	0	-5.671495273e-06	10.70809078	-1.528869871e-05	1.0
17	-278.414978	0	0	-4.286770945e-06	9.586294174	-1.62673914e-05	1.0
[RightHand]
15	-283.2879944	0	0.0009999999311	10.54310417	12.59801865	3.120223045	1.0
16	-283.2879944	0	0.0009999999311	9.798085213	11.30502987	4.805352688	1.0
17	-283.2879944	0	0.0009999999311	8.321745872	10.57420731	7.936906815	1.0
[RightHandPinky1]
15	-80.76699829	-4.885000229	-38.06000137	-1.548577547	-4.235567093	27.54389763	1.0
16	-80.76699829	-4.885000229	-38.06000137	-1.502973795	-4.718438148	27.07965851	1.0
17	-80.76699829	-4.885000229	-38.06000137	-1.488120556	-4.842339039	26.87850571	1.0
[RightHandPinky2]
15	-36	0	0.0009999999311	-0.5730494261	-2.233150244	28.80050087	1.0
16	-36	0	0.0009999999311	-0.5663965344	-2.221017122	28.62934113	1.0
17	-36	0	0.0009999999311	-0.5662556291	-2.220758915	28.62578201	1.0
[RightHandPinky3]
15	-21.14200211	0	0	-0.1818162054	-1.286110878	16.09255409	1.0
16	-21.14200211	0	0	-0.178154856	-1.273355842	15.92860889	1.0
17	-21.14200211	0	0	-0.1781182587	-1.273212552	15.92679214	1.0
[RightHandPinky4]
15	-19.75699997	0	0	0	0	0	1.0
16	-19.75699997	0	0	0	0	0	1.0
17	-19.75699997	0	0	0	0	0	1.0
[RightHandRing1]
15	-91.03599548	-0.4390000105	-18.65100098	-1.171120524	-2.850669861	22.36155891	1.0
16	-91.03599548	-0.4390000105	-18.65100098	-1.124993682	-2.963588476	21.67709351	1.0
17	-91.03599548	-0.4390000105	-18.65100098	-1.122628808	-2.94428277	21.6423645	1.0
[RightHandRing2]
15	-31.54000092	0	0	-1.507171988	-3.420235395	47.55256653	1.0
16	-31.54000092	0	0	-1.509593129	-3.422442913	47.59309769	1.0
17	-31.54000092	0	0	-1.51051724	-3.423287153	47.60863495	1.0
[RightHandRing3]
15	-29.37700081	0	0	-0.3772045374	-1.832273245	23.26392174	1.0
16	-29.37700081	0	0	-0.3785071969	-1.835291386	23.30464935	1.0
17	-29.37700081	0	0	-0.3790051341	-1.836437464	23.32012367	1.0
[RightHandRing4]
15	-26.47500038	0	0	0	0	0	1.0
16	-26.47500038	0	0	0	0	0	1.0
17	-26.47500038	0	0	0	0	0	1.0
[RightHandMiddle1]
15	-95.32500458	0	0	-0.9596441984	-0.2622002363	19.25897408	1.0
16	-95.32500458	0	0	-0.9384971261	-0.1583632678	18.93581009	1.0
17	-95.32500458	0	0	-0.93653965	-0.1110604629	18.90831184	1.0
[RightHandMiddle2]
15	-36.98199844	0	0	-0.8483434319	-2.673461676	35.20568848	1.0
16	-36.98199844	0	0	-0.8455265164	-2.669460773	35.14510345	1.0
17	-36.98199844	0	0	-0.8453728557	-2.669213057	35.1416626	1.0
[RightHandMiddle3]
15	-29.50900078	0	0	-0.2914634347	-1.620445013	20.41682243	1.0
16	-29.50900078	0	0	-0.2897539735	-1.615853906	20.3561573	1.0
17	-29.50900078	0	0	-0.2896516621	-1.615581632	20.35258675	1.0
[RightHandMiddle4]
15	-28.3390007	0	0.0009999999311	0	0	0	1.0
16	-28.3390007	0	0.0009999999311	0	0	0	1.0
17	-28.3390007	0	0.0009999999311	0	0	0	1.0
[RightHandIndex1]
15	-91.08300018	-5.167999744	22.60099792	-0.6254708171	4.285988808	17.57235336	1.0
16	-91.08300018	-5.167999744	22.60099792	-0.5121065974	4.226586819	16.46205139	1.0
17	-91.08300018	-5.167999744	22.60099792	-0.4806435108	4.165729046	16.3249588	1.0
[RightHandIndex2]
15	-36.76399994	0	0	-0.391929239	-1.866099715	23.71986961	1.0
16	-36.76399994	0	0	-0.3960575461	-1.875477076	23.84651184	1.0
17	-36.76399994	0	0	-0.3954662681	-1.874143124	23.82858467	1.0
[RightHandIndex3]
15	-28.83100128	0	0	-0.07706980407	-0.842189908	10.4568615	1.0
16	-28.83100128	0	0	-0.07894511521	-0.8522577882	10.58338547	1.0
17	-28.83100128	0	0	-0.0786742866	-0.850841403	10.56546688	1.0
[RightHandIndex4]
15	-23.92700005	0	0	0	0	0	1.0
16	-23.92700005	0	0	0	0	0	1.0
17	-23.92700005	0	0	0	0	0	1.0
[RightHandThumb1]
15	-24.64799881	-15.72700024	26.82600021	12.78110313	-2.167885065	-4.410644054	1.0
16	-24.64799881	-15.72700024	26.82600021	12.78110313	-2.167885065	-4.410644054	1.0
17	-24.64799881	-15.72700024	26.82600021	12.78110313	-2.167885065	-4.410644054	1.0
[RightHandThumb2]
15	-32.29800034	-18.64699936	18.64699936	8.64682579	-20.69305611	-10.88621712	1.0
16	-32.29800034	-18.64699936	18.64699936	8.219708443	-20.62160683	-11.17027092	1.0
17	-32.29800034	-18.64699936	18.64699936	8.326436996	-20.61614609	-11.23624039	1.0
[RightHandThumb3]
15	-26.52600098	-15.31399918	15.31399918	-15.44595051	-4.941607475	-11.21581173	1.0
16	-26.52600098	-15.31399918	15.31399918	-15.42079449	-5.001130581	-11.19700432	1.0
17	-26.52600098	-15.31399918	15.31399918	-15.41762829	-5.008602619	-11.19465256	1.0
[RightHandThumb4]
15	-19.54599953	-11.28499985	11.28499985	0	0	0	1.0
16	-19.54599953	-11.28499985	11.28499985	0	0	0	1.0
17	-19.54599953	-11.28499985	11.28499985	0	0	0	1.0
[LeftUpLeg]
15	82.07800293	-67.51699829	-15.99599934	-24.26597786	4.782269001	-3.570492744	1.0
16	82.07800293	-67.51699829	-15.99599934	-18.66461563	4.999098301	-4.249942303	1.0
17	82.07800293	-67.51699829	-15.99599934	-12.68365288	5.947324276	-4.898039341	1.0
[LeftLeg]
15	0	-443.7049866	2.845999956	35.43371964	-4.430549622	-2.831207991	1.0
16	0	-443.7049866	2.845999956	31.71745491	-6.007994175	-1.689337134	1.0
17	0	-443.7049866	2.845999956	26.9417572	-8.253489494	-0.4156289995	1.0
[LeftFoot]
15	0	-444.2789917	-29.8219986	-10.41903973	0.3473989964	4.23197031	1.0
16	0	-444.2789917	-29.8219986	-12.11465549	0.3507041931	3.337088346	1.0
17	0	-444.2789917	-29.8219986	-13.37914181	0.3768359125	2.395088673	1.0
[LeftToeBase]
15	0	-87.28699493	107.1060028	-7.281930923	-9.238966072e-07	-5.184266456e-07	1.0
16	0	-87.28699493	107.1060028	-7.075008392	-7.068489936e-07	-5.863065056e-08	1.0
17	0	-87.28699493	107.1060028	-6.851933002	-4.827966293e-08	4.031995502e-07	1.0
[RightUpLeg]
15	-82.07800293	-67.51699829	-15.99599934	-19.09076881	-11.60740757	-4.245421886	1.0
16	-82.07800293	-67.51699829	-15.99599934	-25.97406197	-11.75592899	-3.449325562	1.0
17	-82.07800293	-67.51699829	-15.99599934	-32.25764084	-11.63526726	-2.834105968	1.0
[RightLeg]
15	0	-443.7049866	2.861999989	73.53226471	0.9054111242	-4.177742958	1.0
16	0	-443.7049866	2.861999989	72.87838745	0.500377357	-0.7278577089	1.0
17	0	-443.7049866	2.861999989	69.29237366	-0.27314955	0.05847256258	1.0
[RightFoot]
15	0	-444.2770081	-29.83799934	4.627072334	-0.5470390916	7.014161587	1.0
16	0	-444.2770081	-29.83799934	-0.06389570236	-0.2479123026	6.529821873	1.0
17	0	-444.2770081	-29.83799934	-5.667292595	0.05504481867	6.964234352	1.0
[RightToeBase]
15	0	-87.28699493	107.1060028	-10.40174294	-1.480061883e-06	4.960203569e-06	1.0
16	0	-87.28699493	107.1060028	-8.960565567	-2.772161906e-06	-5.380680932e-07	1.0
17	0	-87.28699493	107.1060028	-7.75005722	2.594844545e-06	1.046505645e-06	1.0
[EndOfFile]
